HIERARCHY
ROOT Hips
{
    OFFSET 0 0 0
    CHANNELS 6 Xposition Yposition Zposition Zrotation Xrotation Yrotation
    JOINT LeftFoot
    {
        OFFSET 0 0 0
        CHANNELS 3 Xposition Yposition Zposition
        End Site { OFFSET 0 0 0 }
    }
    JOINT RightFoot
    {
        OFFSET 0 0 0
        CHANNELS 3 Xposition Yposition Zposition
        End Site { OFFSET 0 0 0 }
    }
}
MOTION
Frames: 10
Frame Time: 0.1
0 0 0 0 0 0 0 0.0 0 0 1.0 0
0 0 0 0 0 0 0 0.0 0 0 1.0 0
0 0 0 0 0 0 0 0.0 0 0 1.0 0
0 0 0 0 0 0 0 0.0 0 0 1.0 0
0 0 0 0 0 0 0 0.0 0 0 1.0 0
0 0 0 0 0 0 0 1.0 0 0 0.0 0
0 0 0 0 0 0 0 1.0 0 0 0.0 0
0 0 0 0 0 0 0 1.0 0 0 0.0 0
0 0 0 0 0 0 0 1.0 0 0 0.0 0
0 0 0 0 0 0 0 1.0 0 0 0.0 0
